<svg width="16" height="17" viewBox="0 0 16 17" fill="none" xmlns="http://www.w3.org/2000/svg">
<path d="M9.07122 0.435545C8.75911 0.155126 8.35435 0 7.93477 0C7.51519 0 7.11042 0.155126 6.79831 0.435545L0.563409 6.03789C0.386136 6.19731 0.244368 6.39222 0.147305 6.60998C0.0502421 6.82773 5.45927e-05 7.06347 0 7.30188V15.2996C0 15.7505 0.179152 16.1831 0.498044 16.5019C0.816936 16.8208 1.24945 17 1.70043 17H3.96767C4.41865 17 4.85116 16.8208 5.17005 16.5019C5.48894 16.1831 5.6681 15.7505 5.6681 15.2996V10.7651C5.6681 10.6148 5.72781 10.4706 5.83411 10.3643C5.94041 10.258 6.08458 10.1983 6.23491 10.1983H9.63576C9.78609 10.1983 9.93026 10.258 10.0366 10.3643C10.1429 10.4706 10.2026 10.6148 10.2026 10.7651V15.2996C10.2026 15.7505 10.3817 16.1831 10.7006 16.5019C11.0195 16.8208 11.452 17 11.903 17H14.1702C14.6212 17 15.0537 16.8208 15.3726 16.5019C15.6915 16.1831 15.8707 15.7505 15.8707 15.2996V7.30188C15.8706 7.06347 15.8204 6.82773 15.7234 6.60998C15.6263 6.39222 15.4845 6.19731 15.3073 6.03789L9.07235 0.435545H9.07122Z" fill="#3498DB"/>
</svg>
