<svg width="20" height="16" viewBox="0 0 20 16" fill="none" xmlns="http://www.w3.org/2000/svg">
<path d="M19.6923 4.15138V12.9231C19.6923 13.7391 19.3681 14.5218 18.7911 15.0988C18.2141 15.6758 17.4314 16 16.6154 16H3.07692C2.26087 16 1.47824 15.6758 0.90121 15.0988C0.324175 14.5218 0 13.7391 0 12.9231V4.15138L9.53354 9.76123C9.62825 9.81709 9.7362 9.84655 9.84615 9.84655C9.95611 9.84655 10.0641 9.81709 10.1588 9.76123L19.6923 4.15138ZM16.6154 3.80956e-08C17.3725 -0.000119035 18.1031 0.2789 18.6673 0.78368C19.2316 1.28846 19.59 1.98356 19.6738 2.736L9.84615 8.51692L0.0184617 2.736C0.102349 1.98356 0.460706 1.28846 1.02498 0.78368C1.58925 0.2789 2.31982 -0.000119035 3.07692 3.80956e-08H16.6154Z" fill="#3498DB"/>
</svg>
