<svg width="32" height="32" viewBox="0 0 32 32" fill="none" xmlns="http://www.w3.org/2000/svg">
<path d="M21.2818 23.03H22.61V24.7H8V23.03H9.32818V8.835C9.32818 8.61354 9.39815 8.40116 9.52269 8.24457C9.64723 8.08797 9.81614 8 9.99227 8H20.6177C20.7939 8 20.9628 8.08797 21.0873 8.24457C21.2119 8.40116 21.2818 8.61354 21.2818 8.835V23.03ZM14.6409 13.01H13.3127V14.68H14.6409V16.35H15.9691V14.68H17.2973V13.01H15.9691V11.34H14.6409V13.01ZM16.6332 23.03H17.9614V18.02H12.6486V23.03H13.9768V19.69H16.6332V23.03Z" fill="#929CAD"/>
</svg>
