<svg width="28" height="28" viewBox="0 0 28 28" fill="none" xmlns="http://www.w3.org/2000/svg">
<g clip-path="url(#clip0_228_1556)">
<path d="M12.5009 7.02514C13.5841 7.02415 14.6433 7.34446 15.5444 7.94554C16.4456 8.54662 17.1482 9.40147 17.5634 10.402C17.9786 11.4024 18.0878 12.5036 17.8771 13.5661C17.6663 14.6286 17.1452 15.6048 16.3796 16.3711C15.614 17.1374 14.6383 17.6594 13.576 17.8711C12.5137 18.0828 11.4124 17.9746 10.4116 17.5603C9.41072 17.146 8.55523 16.4442 7.95333 15.5436C7.35142 14.643 7.03015 13.5841 7.03015 12.5009C7.03671 11.0515 7.61504 9.66331 8.63945 8.63797C9.66385 7.61263 11.0515 7.03303 12.5009 7.02514ZM12.5009 6C11.2151 6 9.95826 6.38127 8.8892 7.0956C7.82013 7.80993 6.98689 8.82523 6.49485 10.0131C6.00282 11.201 5.87408 12.5081 6.12492 13.7692C6.37575 15.0302 6.99491 16.1886 7.90407 17.0977C8.81324 18.0069 9.97159 18.626 11.2326 18.8769C12.4937 19.1277 13.8008 18.999 14.9887 18.5069C16.1766 18.0149 17.1919 17.1817 17.9062 16.1126C18.6205 15.0435 19.0018 13.7867 19.0018 12.5009C19.0018 10.7768 18.3169 9.12322 17.0977 7.90407C15.8786 6.68491 14.225 6 12.5009 6Z" fill="#A5BCE7"/>
<path d="M21.8372 21.1471L18.1517 17.4366L17.4416 18.1417L21.1271 21.8522C21.1734 21.8988 21.2284 21.9359 21.289 21.9612C21.3497 21.9866 21.4147 21.9998 21.4804 22C21.5461 22.0002 21.6112 21.9875 21.672 21.9626C21.7328 21.9377 21.7881 21.901 21.8347 21.8547C21.8813 21.8084 21.9184 21.7534 21.9437 21.6928C21.9691 21.6321 21.9823 21.5671 21.9825 21.5014C21.9827 21.4357 21.97 21.3706 21.9451 21.3098C21.9202 21.249 21.8835 21.1937 21.8372 21.1471Z" fill="#A5BCE7"/>
</g>
<defs>
<clipPath id="clip0_228_1556">
<rect width="28" height="28" fill="white"/>
</clipPath>
</defs>
</svg>
