<svg width="46" height="48" viewBox="0 0 46 48" fill="none" xmlns="http://www.w3.org/2000/svg">
<path d="M42.4987 24.4664C42.4987 22.7397 42.3637 21.4797 42.0715 20.1731H23.0717V27.9663H34.2241C33.9994 29.9031 32.7852 32.8197 30.0869 34.7796L30.0491 35.0405L36.0565 39.87L36.4727 39.9131C40.2951 36.2497 42.4987 30.8597 42.4987 24.4664Z" fill="#4285F4"/>
<path d="M23.0704 45C28.5341 45 33.121 43.1332 36.4714 39.9133L30.0856 34.7798C28.3768 36.0165 26.0833 36.8798 23.0704 36.8798C17.719 36.8798 13.1771 33.2165 11.558 28.1532L11.3207 28.1741L5.07412 33.1908L4.99243 33.4265C8.32017 40.2865 15.1556 45 23.0704 45Z" fill="#34A853"/>
<path d="M11.5592 28.1533C11.132 26.8466 10.8847 25.4465 10.8847 23.9999C10.8847 22.5532 11.132 21.1532 11.5367 19.8466L11.5254 19.5683L5.20053 14.471L4.99359 14.5732C3.62207 17.4199 2.83508 20.6166 2.83508 23.9999C2.83508 27.3833 3.62207 30.5798 4.99359 33.4265L11.5592 28.1533Z" fill="#FBBC05"/>
<path d="M23.0705 11.1199C26.8704 11.1199 29.4336 12.8233 30.8952 14.2467L36.6064 8.46C33.0988 5.07668 28.5343 3 23.0705 3C15.1557 3 8.32019 7.7133 4.99243 14.5732L11.5356 19.8466C13.1771 14.7833 17.7191 11.1199 23.0705 11.1199Z" fill="#EB4335"/>
</svg>
