<svg width="15" height="17" viewBox="0 0 15 17" fill="none" xmlns="http://www.w3.org/2000/svg">
<path d="M7.4375 0C6.31033 0 5.22932 0.447766 4.43229 1.2448C3.63526 2.04182 3.1875 3.12283 3.1875 4.25C3.1875 5.37717 3.63526 6.45817 4.43229 7.2552C5.22932 8.05223 6.31033 8.49999 7.4375 8.49999C8.56466 8.49999 9.64567 8.05223 10.4427 7.2552C11.2397 6.45817 11.6875 5.37717 11.6875 4.25C11.6875 3.12283 11.2397 2.04182 10.4427 1.2448C9.64567 0.447766 8.56466 0 7.4375 0ZM2.13456 9.56249C1.85474 9.56137 1.57745 9.61551 1.31859 9.72178C1.05973 9.82806 0.824398 9.98439 0.626087 10.1818C0.427777 10.3792 0.27039 10.6139 0.162952 10.8722C0.0555136 11.1306 0.000137606 11.4077 0 11.6875C0 13.4842 0.885062 14.8389 2.26844 15.7218C3.63056 16.5899 5.46656 17 7.4375 17C9.40843 17 11.2444 16.5899 12.6066 15.7218C13.9899 14.8399 14.875 13.4842 14.875 11.6875C14.875 11.1239 14.6511 10.5834 14.2526 10.1849C13.8541 9.78638 13.3136 9.56249 12.75 9.56249H2.13456Z" fill="#929CAD"/>
</svg>
