<svg width="15" height="17" viewBox="0 0 15 17" fill="none" xmlns="http://www.w3.org/2000/svg">
<path d="M13.5204 15.3H14.8724V17H0V15.3H1.35204V0.849999C1.35204 0.624566 1.42326 0.408365 1.55004 0.248959C1.67682 0.0895532 1.84877 0 2.02806 0H12.8444C13.0237 0 13.1956 0.0895532 13.3224 0.248959C13.4492 0.408365 13.5204 0.624566 13.5204 0.849999V15.3ZM6.7602 5.1H5.40816V6.8H6.7602V8.49999H8.11224V6.8H9.46428V5.1H8.11224V3.4H6.7602V5.1ZM8.78826 15.3H10.1403V10.2H4.73214V15.3H6.08418V11.9H8.78826V15.3Z" fill="#3498DB"/>
</svg>
